<?xml version="1.0" encoding="utf-8"?>
<svg version="1.1" xmlns:xlink="http://www.w3.org/1999/xlink" width="20px" height="20px" xmlns="http://www.w3.org/2000/svg">
  <g transform="matrix(1 0 0 1 -1237 -16 )">
    <path d="M 8.55208333333333 12.0499716070415  C 9.07291666666667 11.4821124361158  9.33333333333333 10.7968957031989  9.33333333333333 9.99432140829074  C 9.33333333333333 9.19174711338255  9.07291666666667 8.50653038046564  8.55208333333333 7.93867120954003  C 8.03125 7.37081203861442  7.40277777777778 7.08688245315162  6.66666666666667 7.08688245315162  C 5.93055555555556 7.08688245315162  5.30208333333333 7.37081203861442  4.78125 7.93867120954003  C 4.26041666666667 8.50653038046564  4 9.19174711338255  4 9.99432140829074  C 4 10.7968957031989  4.26041666666667 11.4821124361158  4.78125 12.0499716070415  C 5.30208333333333 12.6178307779671  5.93055555555556 12.9017603634299  6.66666666666667 12.9017603634299  C 7.40277777777778 12.9017603634299  8.03125 12.6178307779671  8.55208333333333 12.0499716070415  Z M 16.9427083333333 16.8370244179443  C 17.203125 16.5530948324815  17.3333333333333 16.2104864660231  17.3333333333333 15.809199318569  C 17.3333333333333 15.4154836267272  17.2013888888889 15.0747681241719  16.9375 14.7870528109029  C 16.6736111111111 14.4993374976339  16.3611111111111 14.3554798409994  16 14.3554798409994  C 15.6388888888889 14.3554798409994  15.3263888888889 14.4993374976339  15.0625 14.7870528109029  C 14.7986111111111 15.0747681241719  14.6666666666667 15.4154836267272  14.6666666666667 15.809199318569  C 14.6666666666667 16.2104864660231  14.796875 16.5530948324815  15.0572916666667 16.8370244179443  C 15.3177083333333 17.1209540034072  15.6319444444444 17.2629187961386  16 17.2629187961386  C 16.3680555555556 17.2629187961386  16.6822916666667 17.1209540034072  16.9427083333333 16.8370244179443  Z M 16.9427083333333 5.20726859738785  C 17.203125 4.92333901192504  17.3333333333333 4.58073064546659  17.3333333333333 4.17944349801249  C 17.3333333333333 3.78572780617074  17.2013888888889 3.44501230361537  16.9375 3.15729699034639  C 16.6736111111111 2.86958167707742  16.3611111111111 2.72572402044293  16 2.72572402044293  C 15.6388888888889 2.72572402044293  15.3263888888889 2.86958167707742  15.0625 3.15729699034639  C 14.7986111111111 3.44501230361537  14.6666666666667 3.78572780617074  14.6666666666667 4.17944349801249  C 14.6666666666667 4.58073064546659  14.796875 4.92333901192504  15.0572916666667 5.20726859738785  C 15.3177083333333 5.49119818285065  15.6319444444444 5.63316297558206  16 5.63316297558206  C 16.3680555555556 5.63316297558206  16.6822916666667 5.49119818285065  16.9427083333333 5.20726859738785  Z M 13.2604166666667 8.73935264054514  C 13.3090277777778 8.80371001325005  13.3333333333333 8.87753170547038  13.3333333333333 8.96081771720613  L 13.3333333333333 11.0618966496309  C 13.3333333333333 11.1376112057543  13.3090277777778 11.2114328979746  13.2604166666667 11.2833617262919  C 13.2118055555556 11.3552905546091  13.15625 11.3950406965739  13.09375 11.4026121521863  L 11.4791666666667 11.6751845542306  C 11.4027777777778 11.9401855006625  11.2916666666667 12.2279008139315  11.1458333333333 12.5383304940375  C 11.3819444444444 12.9017603634299  11.6944444444444 13.3371190611395  12.0833333333333 13.8444065871664  C 12.1319444444444 13.9276925989021  12.15625 14.0034071550256  12.15625 14.0715502555366  C 12.15625 14.1624077228847  12.1319444444444 14.234336551202  12.0833333333333 14.2873367404884  C 11.9236111111111 14.5144804088586  11.6371527777778 14.8533030475109  11.2239583333333 15.3038046564452  C 10.8107638888889 15.7543062653795  10.5381944444444 15.9795570698467  10.40625 15.9795570698467  C 10.3298611111111 15.9795570698467  10.2569444444444 15.9530569752035  10.1875 15.9000567859171  L 8.98958333333333 14.877910278251  C 8.73263888888889 15.0217679348855  8.46527777777778 15.1391254968768  8.1875 15.2299829642249  C 8.11111111111111 16.0477001703578  8.03125 16.6344879803142  7.94791666666667 16.9903463940943  C 7.89930555555556 17.1720613287905  7.79513888888889 17.2629187961386  7.63541666666667 17.2629187961386  L 5.69791666666667 17.2629187961386  C 5.62152777777778 17.2629187961386  5.55208333333333 17.2345258375923  5.48958333333333 17.1777399204997  C 5.42708333333333 17.1209540034072  5.39236111111111 17.0547037667992  5.38541666666667 16.9789892106758  L 5.14583333333333 15.2413401476434  C 4.90972222222222 15.16562559152  4.64930555555556 15.0482680295287  4.36458333333333 14.8892674616695  L 3.13541666666667 15.9000567859171  C 3.08680555555556 15.9530569752035  3.01736111111111 15.9795570698467  2.92708333333333 15.9795570698467  C 2.85069444444444 15.9795570698467  2.77777777777778 15.9492712473973  2.70833333333333 15.8886996024986  C 1.70833333333333 14.8816960060572  1.20833333333333 14.2759795570698  1.20833333333333 14.0715502555366  C 1.20833333333333 14.0034071550256  1.23263888888889 13.9314783267083  1.28125 13.8557637705849  C 1.35069444444444 13.7497633920121  1.49305555555556 13.5491198182851  1.70833333333333 13.2538330494037  C 1.92361111111111 12.9585462805224  2.08680555555556 12.727616884346  2.19791666666667 12.5610448608745  C 2.03819444444444 12.2279008139315  1.91666666666667 11.9174711338255  1.83333333333333 11.6297558205565  L 0.25 11.3571834185122  C 0.180555555555556 11.3496119628999  0.121527777777778 11.3136475487412  0.0729166666666667 11.2492901760363  C 0.0243055555555556 11.1849328033314  0 11.1111111111111  0 11.0278250993754  L 0 8.9267461669506  C 0 8.85103161082718  0.0243055555555556 8.77720991860685  0.0729166666666667 8.70528109028961  C 0.121527777777778 8.63335226197236  0.177083333333333 8.59360212000757  0.239583333333333 8.58603066439523  L 1.85416666666667 8.31345826235094  C 1.93055555555556 8.04845731591898  2.04166666666667 7.76074200265001  2.1875 7.45031232254401  C 1.95138888888889 7.08688245315162  1.63888888888889 6.65152375544198  1.25 6.1442362294151  C 1.20138888888889 6.06095021767935  1.17708333333333 5.98523566155593  1.17708333333333 5.91709256104486  C 1.17708333333333 5.82623509369676  1.20138888888889 5.75052053757335  1.25 5.68994889267462  C 1.40277777777778 5.46280522430437  1.6875 5.12587544955518  2.10416666666667 4.67915956842703  C 2.52083333333333 4.23244368729888  2.79513888888889 4.00908574673481  2.92708333333333 4.00908574673481  C 3.00347222222222 4.00908574673481  3.07638888888889 4.035585841378  3.14583333333333 4.0885860306644  L 4.34375 5.11073253833049  C 4.57986111111111 4.97444633730835  4.84722222222222 4.85330304751088  5.14583333333333 4.7473026689381  C 5.22222222222222 3.92958546280523  5.30208333333333 3.34658338065493  5.38541666666667 2.99829642248722  C 5.43402777777778 2.81658148779103  5.53819444444445 2.72572402044293  5.69791666666667 2.72572402044293  L 7.63541666666667 2.72572402044293  C 7.71180555555556 2.72572402044293  7.78125 2.75411697898921  7.84375 2.81090289608177  C 7.90625 2.86768881317433  7.94097222222222 2.93393904978232  7.94791666666667 3.00965360590574  L 8.1875 4.7473026689381  C 8.42361111111111 4.82301722506152  8.68402777777778 4.94037478705281  8.96875 5.09937535491198  L 10.1979166666667 4.0885860306644  C 10.2534722222222 4.035585841378  10.3229166666667 4.00908574673481  10.40625 4.00908574673481  C 10.4826388888889 4.00908574673481  10.5555555555556 4.03937156918417  10.625 4.09994321408291  C 11.625 5.10694681052432  12.125 5.71266325951164  12.125 5.91709256104486  C 12.125 5.97766420594359  12.1006944444444 6.04959303426083  12.0520833333333 6.13287904599659  C 11.96875 6.25402233579405  11.8229166666667 6.45845163732727  11.6145833333333 6.74616695059625  C 11.40625 7.03388226386523  11.25 7.26102593223547  11.1458333333333 7.42759795570698  C 11.3055555555556 7.79102782509938  11.4236111111111 8.10145750520537  11.5 8.35888699602499  L 13.0833333333333 8.62010221465077  C 13.1527777777778 8.63524512587545  13.2118055555556 8.67499526784024  13.2604166666667 8.73935264054514  Z M 18.4479166666667 14.6621237932993  C 19.4826388888889 14.7756956274844  20 14.8930531894757  20 15.0141964792731  L 20 16.6042021578648  C 20 16.7253454476623  19.4826388888889 16.8427030096536  18.4479166666667 16.9562748438387  C 18.3645833333333 17.1607041453719  18.2604166666667 17.3575619912928  18.1354166666667 17.5468483816014  C 18.4895833333333 18.4024228657959  18.6666666666667 18.9248533030475  18.6666666666667 19.114139693356  C 18.6666666666667 19.1444255158054  18.6527777777778 19.1709256104486  18.625 19.1936399772856  C 17.7777777777778 19.7312133257619  17.3472222222222 20  17.3333333333333 20  C 17.2777777777778 20  17.1180555555556 19.82207079311  16.8541666666667 19.4662123793299  C 16.5902777777778 19.1103539655499  16.4097222222222 18.8529244747303  16.3125 18.6939239068711  C 16.1736111111111 18.7090668180958  16.0694444444444 18.7166382737081  16 18.7166382737081  C 15.9305555555556 18.7166382737081  15.8263888888889 18.7090668180958  15.6875 18.6939239068711  C 15.5902777777778 18.8529244747303  15.4097222222222 19.1103539655499  15.1458333333333 19.4662123793299  C 14.8819444444444 19.82207079311  14.7222222222222 20  14.6666666666667 20  C 14.6527777777778 20  14.2222222222222 19.7312133257619  13.375 19.1936399772856  C 13.3472222222222 19.1709256104486  13.3333333333333 19.1444255158054  13.3333333333333 19.114139693356  C 13.3333333333333 18.9248533030475  13.5104166666667 18.4024228657959  13.8645833333333 17.5468483816014  C 13.7395833333333 17.3575619912928  13.6354166666667 17.1607041453719  13.5520833333333 16.9562748438387  C 12.5173611111111 16.8427030096536  12 16.7253454476623  12 16.6042021578648  L 12 15.0141964792731  C 12 14.8930531894757  12.5173611111111 14.7756956274844  13.5520833333333 14.6621237932993  C 13.6423611111111 14.4425515805414  13.7465277777778 14.2456937346205  13.8645833333333 14.0715502555366  C 13.5104166666667 13.215975771342  13.3333333333333 12.6935453340905  13.3333333333333 12.5042589437819  C 13.3333333333333 12.4739731213326  13.3472222222222 12.4474730266894  13.375 12.4247586598524  C 13.4027777777778 12.4096157486277  13.5243055555556 12.3339011925043  13.7395833333333 12.1976149914821  C 13.9548611111111 12.06132879046  14.1597222222222 11.9326140450502  14.3541666666667 11.8114707552527  C 14.5486111111111 11.6903274654552  14.6527777777778 11.6297558205565  14.6666666666667 11.6297558205565  C 14.7222222222222 11.6297558205565  14.8819444444444 11.8057921635434  15.1458333333333 12.1578648495173  C 15.4097222222222 12.5099375354912  15.5902777777778 12.7654741624077  15.6875 12.9244747302669  C 15.8263888888889 12.9093318190422  15.9305555555556 12.9017603634299  16 12.9017603634299  C 16.0694444444444 12.9017603634299  16.1736111111111 12.9093318190422  16.3125 12.9244747302669  C 16.6666666666667 12.3869013817906  16.9861111111111 11.9628998674995  17.2708333333333 11.6524701873935  L 17.3333333333333 11.6297558205565  C 17.3611111111111 11.6297558205565  17.7916666666667 11.8947567669885  18.625 12.4247586598524  C 18.6527777777778 12.4474730266894  18.6666666666667 12.4739731213326  18.6666666666667 12.5042589437819  C 18.6666666666667 12.6935453340905  18.4895833333333 13.215975771342  18.1354166666667 14.0715502555366  C 18.2534722222222 14.2456937346205  18.3576388888889 14.4425515805414  18.4479166666667 14.6621237932993  Z M 18.4479166666667 3.03236797274276  C 19.4826388888889 3.14593980692788  20 3.26329736891917  20 3.38444065871664  L 20 4.97444633730835  C 20 5.09558962710581  19.4826388888889 5.2129471890971  18.4479166666667 5.32651902328223  C 18.3645833333333 5.53094832481545  18.2604166666667 5.72780617073632  18.1354166666667 5.91709256104486  C 18.4895833333333 6.77266704523945  18.6666666666667 7.29509748249101  18.6666666666667 7.48438387279954  C 18.6666666666667 7.51466969524891  18.6527777777778 7.54116978989211  18.625 7.56388415672913  C 17.7777777777778 8.10145750520537  17.3472222222222 8.3702441794435  17.3333333333333 8.3702441794435  C 17.2777777777778 8.3702441794435  17.1180555555556 8.19231497255347  16.8541666666667 7.83645655877342  C 16.5902777777778 7.48059814499337  16.4097222222222 7.22316865417376  16.3125 7.0641680863146  C 16.1736111111111 7.07931099753928  16.0694444444444 7.08688245315162  16 7.08688245315162  C 15.9305555555556 7.08688245315162  15.8263888888889 7.07931099753928  15.6875 7.0641680863146  C 15.5902777777778 7.22316865417376  15.4097222222222 7.48059814499337  15.1458333333333 7.83645655877342  C 14.8819444444444 8.19231497255347  14.7222222222222 8.3702441794435  14.6666666666667 8.3702441794435  C 14.6527777777778 8.3702441794435  14.2222222222222 8.10145750520537  13.375 7.56388415672913  C 13.3472222222222 7.54116978989211  13.3333333333333 7.51466969524891  13.3333333333333 7.48438387279954  C 13.3333333333333 7.29509748249101  13.5104166666667 6.77266704523945  13.8645833333333 5.91709256104486  C 13.7395833333333 5.72780617073632  13.6354166666667 5.53094832481545  13.5520833333333 5.32651902328223  C 12.5173611111111 5.2129471890971  12 5.09558962710581  12 4.97444633730835  L 12 3.38444065871664  C 12 3.26329736891917  12.5173611111111 3.14593980692788  13.5520833333333 3.03236797274276  C 13.6423611111111 2.81279575998486  13.7465277777778 2.61593791406398  13.8645833333333 2.44179443498012  C 13.5104166666667 1.58621995078554  13.3333333333333 1.06378951353397  13.3333333333333 0.874503123225441  C 13.3333333333333 0.844217300776073  13.3472222222222 0.81771720613288  13.375 0.795002839295855  C 13.4027777777778 0.779859928071169  13.5243055555556 0.704145371947758  13.7395833333333 0.567859170925611  C 13.9548611111111 0.431572969903464  14.1597222222222 0.302858224493656  14.3541666666667 0.181714934696195  C 14.5486111111111 0.0605716448987303  14.6527777777778 0  14.6666666666667 0  C 14.7222222222222 0  14.8819444444444 0.176036342986938  15.1458333333333 0.528109028960817  C 15.4097222222222 0.880181714934696  15.5902777777778 1.13571834185122  15.6875 1.29471890971039  C 15.8263888888889 1.27957599848571  15.9305555555556 1.27200454287337  16 1.27200454287337  C 16.0694444444444 1.27200454287337  16.1736111111111 1.27957599848571  16.3125 1.29471890971039  C 16.6666666666667 0.757145561234145  16.9861111111111 0.333144046943024  17.2708333333333 0.0227143668370244  L 17.3333333333333 0  C 17.3611111111111 0  17.7916666666667 0.26500094643195  18.625 0.795002839295855  C 18.6527777777778 0.81771720613288  18.6666666666667 0.844217300776073  18.6666666666667 0.874503123225441  C 18.6666666666667 1.06378951353397  18.4895833333333 1.58621995078554  18.1354166666667 2.44179443498012  C 18.2534722222222 2.61593791406398  18.3576388888889 2.81279575998486  18.4479166666667 3.03236797274276  Z " fill-rule="nonzero" fill="#000000" stroke="none" transform="matrix(1 0 0 1 1237 16 )" />
  </g>
</svg>