<?xml version="1.0" encoding="utf-8"?>
<svg version="1.1" xmlns:xlink="http://www.w3.org/1999/xlink" width="12px" height="12px" xmlns="http://www.w3.org/2000/svg">
  <g transform="matrix(1 0 0 1 -14 -145 )">
    <path d="M 7.94140625 1.3984375  C 7.32421875 1.1328125  6.67708333333333 1  6 1  C 5.32291666666667 1  4.67578125 1.1328125  4.05859375 1.3984375  C 3.44140625 1.6640625  2.91015625 2.01953125  2.46484375 2.46484375  C 2.01953125 2.91015625  1.6640625 3.44140625  1.3984375 4.05859375  C 1.1328125 4.67578125  1 5.32291666666667  1 6  C 1 6.67708333333333  1.1328125 7.32421875  1.3984375 7.94140625  C 1.6640625 8.55859375  2.01953125 9.08984375  2.46484375 9.53515625  C 2.91015625 9.98046875  3.44140625 10.3359375  4.05859375 10.6015625  C 4.67578125 10.8671875  5.32291666666667 11  6 11  C 6.67708333333333 11  7.32421875 10.8671875  7.94140625 10.6015625  C 8.55859375 10.3359375  9.08984375 9.98046875  9.53515625 9.53515625  C 9.98046875 9.08984375  10.3359375 8.55859375  10.6015625 7.94140625  C 10.8671875 7.32421875  11 6.67708333333333  11 6  C 11 5.32291666666667  10.8671875 4.67578125  10.6015625 4.05859375  C 10.3359375 3.44140625  9.98046875 2.91015625  9.53515625 2.46484375  C 9.08984375 2.01953125  8.55859375 1.6640625  7.94140625 1.3984375  Z M 11.1953125 2.98828125  C 11.7317708333333 3.90755208333333  12 4.91145833333333  12 6  C 12 7.08854166666667  11.7317708333333 8.09244791666666  11.1953125 9.01171875  C 10.6588541666667 9.93098958333333  9.93098958333333 10.6588541666667  9.01171875 11.1953125  C 8.09244791666667 11.7317708333333  7.08854166666667 12  6 12  C 4.91145833333333 12  3.90755208333333 11.7317708333333  2.98828125 11.1953125  C 2.06901041666667 10.6588541666667  1.34114583333333 9.93098958333333  0.8046875 9.01171875  C 0.268229166666667 8.09244791666666  0 7.08854166666667  0 6  C 0 4.91145833333333  0.268229166666667 3.90755208333333  0.8046875 2.98828125  C 1.34114583333333 2.06901041666667  2.06901041666667 1.34114583333333  2.98828125 0.8046875  C 3.90755208333333 0.268229166666666  4.91145833333333 0  6 0  C 7.08854166666667 0  8.09244791666667 0.268229166666666  9.01171875 0.8046875  C 9.93098958333333 1.34114583333333  10.6588541666667 2.06901041666667  11.1953125 2.98828125  Z " fill-rule="nonzero" fill="#000000" stroke="none" transform="matrix(1 0 0 1 14 145 )" />
  </g>
</svg>