<?xml version="1.0" encoding="utf-8"?>
<svg version="1.1" xmlns:xlink="http://www.w3.org/1999/xlink" width="20px" height="20px" xmlns="http://www.w3.org/2000/svg">
  <g transform="matrix(1 0 0 1 -1100 -16 )">
    <path d="M 15.1273148148148 13.1380208333333  C 16.0532407407407 13.1380208333333  17.1836419753086 12.7387152777778  18.5185185185185 11.9401041666667  L 18.5185185185185 3.91927083333333  C 17.2145061728395 4.70920138888889  16.033950617284 5.10416666666667  14.9768518518519 5.10416666666667  C 14.3441358024691 5.10416666666667  13.7847222222222 4.96527777777778  13.2986111111111 4.6875  C 12.5270061728395 4.26215277777778  11.8171296296296 3.93012152777778  11.1689814814815 3.69140625  C 10.5208333333333 3.45269097222222  9.83410493827161 3.33333333333333  9.1087962962963 3.33333333333333  C 7.77391975308642 3.33333333333333  6.21913580246914 3.88454861111111  4.44444444444444 4.98697916666667  L 4.44444444444444 12.7864583333333  C 6.33487654320988 11.8055555555556  8.0054012345679 11.3151041666667  9.45601851851852 11.3151041666667  C 9.8804012345679 11.3151041666667  10.2797067901235 11.34765625  10.6539351851852 11.4127604166667  C 11.0281635802469 11.4778645833333  11.40625 11.5907118055556  11.7881944444444 11.7513020833333  C 12.1701388888889 11.9118923611111  12.4672067901235 12.0464409722222  12.6793981481481 12.1549479166667  C 12.8915895061728 12.2634548611111  13.2098765432099 12.4348958333333  13.6342592592593 12.6692708333333  L 13.9583333333333 12.8515625  C 14.2978395061728 13.0425347222222  14.6875 13.1380208333333  15.1273148148148 13.1380208333333  Z M 2.52893518518519 0.48828125  C 2.81828703703704 0.813802083333333  2.96296296296296 1.20659722222222  2.96296296296296 1.66666666666667  C 2.96296296296296 1.97048611111111  2.8954475308642 2.24826388888889  2.76041666666667 2.5  C 2.62538580246914 2.75173611111111  2.44598765432099 2.95138888888889  2.22222222222222 3.09895833333333  L 2.22222222222222 19.5833333333333  C 2.22222222222222 19.7048611111111  2.1875 19.8046875  2.11805555555556 19.8828125  C 2.04861111111111 19.9609375  1.95987654320988 20  1.85185185185185 20  L 1.11111111111111 20  C 1.00308641975309 20  0.914351851851852 19.9609375  0.844907407407407 19.8828125  C 0.775462962962963 19.8046875  0.740740740740741 19.7048611111111  1 19.5833333333333  L 1 3.09895833333333  C 0.516975308641976 2.95138888888889  0.337577160493827 2.75173611111111  0.202546296296296 2.5  C 0.0675154320987655 2.24826388888889  0 1.97048611111111  0 1.66666666666667  C 0 1.20659722222222  0.144675925925926 0.813802083333333  0.434027777777778 0.48828125  C 0.72337962962963 0.162760416666667  1.07253086419753 0  1.48148148148148 0  C 1.89043209876543 0  2.23958333333333 0.162760416666667  2.52893518518519 0.48828125  Z M 19.6412037037037 1.78385416666667  C 19.8804012345679 1.95746527777778  20 2.19618055555555  20 2.5  L 20 12.4348958333333  C 20 12.7734375  19.8649691358025 13.0208333333333  19.5949074074074 13.1770833333333  C 19.5177469135803 13.2204861111111  19.4521604938272 13.2595486111111  19.3981481481481 13.2942708333333  C 17.7160493827161 14.3012152777778  16.2924382716049 14.8046875  15.1273148148148 14.8046875  C 14.4483024691358 14.8046875  13.8387345679012 14.6527777777778  13.2986111111111 14.3489583333333  L 12.974537037037 14.1666666666667  C 12.4807098765432 13.8802083333333  12.0987654320988 13.671875  11.8287037037037 13.5416666666667  C 11.5586419753086 13.4114583333333  11.2075617283951 13.2855902777778  10.775462962963 13.1640625  C 10.3433641975309 13.0425347222222  9.90354938271605 12.9817708333333  9.45601851851852 12.9817708333333  C 8.66898148148148 12.9817708333333  7.76041666666667 13.1727430555556  6.73032407407407 13.5546875  C 5.70023148148148 13.9366319444444  4.81867283950617 14.3793402777778  4.08564814814815 14.8828125  C 3.96990740740741 14.9609375  3.84259259259259 15  3.7037037037037 15  C 3.58024691358025 15  3.45679012345679 14.9652777777778  3.33333333333333 14.8958333333333  C 3.08641975308642 14.7309027777778  2.96296296296296 14.4878472222222  2.96296296296296 14.1666666666667  L 2.96296296296296 4.50520833333333  C 2.96296296296296 4.20138888888889  3.08256172839506 3.96267361111111  3.32175925925926 3.7890625  C 3.59182098765432 3.60677083333333  3.89467592592593 3.42230902777778  4.23032407407407 3.23567708333333  C 4.56597222222222 3.04904513888889  5.00578703703704 2.82335069444444  5.54976851851852 2.55859375  C 6.09375 2.29383680555555  6.6820987654321 2.07899305555555  7.31481481481481 1.9140625  C 7.94753086419753 1.74913194444444  8.54552469135803 1.66666666666667  9.1087962962963 1.66666666666667  C 9.97299382716049 1.66666666666667  10.7793209876543 1.80121527777778  11.5277777777778 2.0703125  C 12.2762345679012 2.33940972222222  13.0825617283951 2.71267361111111  13.9467592592593 3.19010416666667  C 14.2399691358025 3.35503472222222  14.5833333333333 3.4375  14.9768518518519 3.4375  C 15.9182098765432 3.4375  17.1141975308642 2.95138888888889  18.5648148148148 1.97916666666667  C 18.7345679012346 1.875  18.8541666666667 1.80121527777778  18.9236111111111 1.7578125  C 19.1628086419753 1.61892361111111  19.4020061728395 1.62760416666667  19.6412037037037 1.78385416666667  Z " fill-rule="nonzero" fill="#000000" stroke="none" transform="matrix(1 0 0 1 1100 16 )" />
  </g>
</svg>