<?xml version="1.0" encoding="utf-8"?>
<svg version="1.1" xmlns:xlink="http://www.w3.org/1999/xlink" width="12px" height="12px" viewBox="248 79.5  12 12" xmlns="http://www.w3.org/2000/svg">
  <path d="M 254 79.5  C 257.36 79.5  260 82.14  260 85.5  C 260 88.86  257.36 91.5  254 91.5  C 250.64 91.5  248 88.86  248 85.5  C 248 82.14  250.64 79.5  254 79.5  Z " fill-rule="nonzero" fill="#ffffff" stroke="none" />
  <path d="M 254 80  C 257.08 80  259.5 82.42  259.5 85.5  C 259.5 88.58  257.08 91  254 91  C 250.92 91  248.5 88.58  248.5 85.5  C 248.5 82.42  250.92 80  254 80  Z " stroke-width="1" stroke="#797979" fill="none" />
  <path d="M 254 88.5  C 252.32 88.5  251 87.18  251 85.5  C 251 83.82  252.32 82.5  254 82.5  C 255.68 82.5  257 83.82  257 85.5  C 257 87.18  255.68 88.5  254 88.5  " fill-rule="nonzero" fill="#797979" stroke="none" />
</svg>