<?xml version="1.0" encoding="utf-8"?>
<svg version="1.1" xmlns:xlink="http://www.w3.org/1999/xlink" width="12px" height="12px" viewBox="248 116  12 12" xmlns="http://www.w3.org/2000/svg">
  <path d="M 254 116  C 257.36 116  260 118.64  260 122  C 260 125.36  257.36 128  254 128  C 250.64 128  248 125.36  248 122  C 248 118.64  250.64 116  254 116  Z " fill-rule="nonzero" fill="#ffffff" stroke="none" />
  <path d="M 254 116.5  C 257.08 116.5  259.5 118.92  259.5 122  C 259.5 125.08  257.08 127.5  254 127.5  C 250.92 127.5  248.5 125.08  248.5 122  C 248.5 118.92  250.92 116.5  254 116.5  Z " stroke-width="1" stroke="#797979" fill="none" />
  <path d="M 254 125  C 252.32 125  251 123.68  251 122  C 251 120.32  252.32 119  254 119  C 255.68 119  257 120.32  257 122  C 257 123.68  255.68 125  254 125  " fill-rule="nonzero" fill="#797979" stroke="none" />
</svg>