<?xml version="1.0" encoding="utf-8"?>
<svg version="1.1" xmlns:xlink="http://www.w3.org/1999/xlink" width="20px" height="20px" xmlns="http://www.w3.org/2000/svg">
  <g transform="matrix(1 0 0 1 -1156 -251 )">
    <path d="M 7.14488636363636 7.6171875  C 7.23011363636364 7.6953125  7.27272727272727 7.79513888888889  7.27272727272727 7.91666666666667  L 7.27272727272727 15.4166666666667  C 7.27272727272727 15.5381944444444  7.23011363636364 15.6380208333333  7.14488636363636 15.7161458333333  C 7.05965909090909 15.7942708333333  6.95075757575758 15.8333333333333  6.81818181818182 15.8333333333333  L 5.90909090909091 15.8333333333333  C 5.77651515151515 15.8333333333333  5.66761363636364 15.7942708333333  5.58238636363636 15.7161458333333  C 5.49715909090909 15.6380208333333  5.45454545454545 15.5381944444444  5.45454545454545 15.4166666666667  L 5.45454545454545 7.91666666666667  C 5.45454545454545 7.79513888888889  5.49715909090909 7.6953125  5.58238636363636 7.6171875  C 5.66761363636364 7.5390625  5.77651515151515 7.5  5.90909090909091 7.5  L 6.81818181818182 7.5  C 6.95075757575758 7.5  7.05965909090909 7.5390625  7.14488636363636 7.6171875  Z M 10.78125 7.6171875  C 10.8664772727273 7.6953125  10.9090909090909 7.79513888888889  10.9090909090909 7.91666666666667  L 10.9090909090909 15.4166666666667  C 10.9090909090909 15.5381944444444  10.8664772727273 15.6380208333333  10.78125 15.7161458333333  C 10.6960227272727 15.7942708333333  10.5871212121212 15.8333333333333  10.4545454545455 15.8333333333333  L 9.54545454545455 15.8333333333333  C 9.41287878787879 15.8333333333333  9.30397727272727 15.7942708333333  9.21875 15.7161458333333  C 9.13352272727273 15.6380208333333  9.09090909090909 15.5381944444444  9.09090909090909 15.4166666666667  L 9.09090909090909 7.91666666666667  C 9.09090909090909 7.79513888888889  9.13352272727273 7.6953125  9.21875 7.6171875  C 9.30397727272727 7.5390625  9.41287878787879 7.5  9.54545454545455 7.5  L 10.4545454545455 7.5  C 10.5871212121212 7.5  10.6960227272727 7.5390625  10.78125 7.6171875  Z M 14.4176136363636 7.6171875  C 14.5028409090909 7.6953125  14.5454545454545 7.79513888888889  14.5454545454545 7.91666666666667  L 14.5454545454545 15.4166666666667  C 14.5454545454545 15.5381944444444  14.5028409090909 15.6380208333333  14.4176136363636 15.7161458333333  C 14.3323863636364 15.7942708333333  14.2234848484848 15.8333333333333  14.0909090909091 15.8333333333333  L 13.1818181818182 15.8333333333333  C 13.0492424242424 15.8333333333333  12.9403409090909 15.7942708333333  12.8551136363636 15.7161458333333  C 12.7698863636364 15.6380208333333  12.7272727272727 15.5381944444444  12.7272727272727 15.4166666666667  L 12.7272727272727 7.91666666666667  C 12.7272727272727 7.79513888888889  12.7698863636364 7.6953125  12.8551136363636 7.6171875  C 12.9403409090909 7.5390625  13.0492424242424 7.5  13.1818181818182 7.5  L 14.0909090909091 7.5  C 14.2234848484848 7.5  14.3323863636364 7.5390625  14.4176136363636 7.6171875  Z M 16.2642045454545 17.87109375  C 16.3304924242424 17.7105034722222  16.3636363636364 17.5347222222222  16 17.34375  L 16 5  L 4 5  L 4 17.34375  C 3.63636363636364 17.5347222222222  3.66950757575758 17.7105034722222  3.73579545454545 17.87109375  C 3.80208333333333 18.0316840277778  3.87073863636364 18.1488715277778  3.94176136363636 18.22265625  C 4.01278409090909 18.2964409722222  4.0625 18.3333333333333  4.09090909090909 18  L 15.9090909090909 18  C 15.9375 18.3333333333333  15.9872159090909 18.2964409722222  16.0582386363636 18.22265625  C 16.1292613636364 18.1488715277778  16.1979166666667 18.0316840277778  16.2642045454545 17.87109375  Z M 7.51420454545455 1.80989583333333  L 6.81818181818182 3.33333333333333  L 13.1818181818182 3.33333333333333  L 12.5 1.80989583333333  C 12.4337121212121 1.73177083333333  12.3532196969697 1.68402777777778  12.2585227272727 1.66666666666667  L 7.75568181818182 1.66666666666667  C 7.66098484848485 1.68402777777778  7.58049242424243 1.73177083333333  7.51420454545455 1.80989583333333  Z M 19.8721590909091 3.45052083333333  C 19.9573863636364 3.52864583333333  20 3.62847222222222  20 3.75  L 20 4.58333333333333  C 20 4.70486111111111  19.9573863636364 4.8046875  19.8721590909091 4.8828125  C 19.7869318181818 4.9609375  19.6780303030303 5  19.5454545454545 5  L 18 5  L 18 17.34375  C 18.1818181818182 18.0642361111111  17.9592803030303 18.6870659722222  17.5142045454545 19.2122395833333  C 17.0691287878788 19.7374131944444  16.5340909090909 20  15.9090909090909 20  L 4.09090909090909 20  C 3.46590909090909 20  2.93087121212121 19.74609375  2.48579545454545 19.23828125  C 2.0407196969697 18.73046875  1.81818181818182 18.1163194444444  2 17.3958333333333  L 2 5  L 0.454545454545455 5  C 0.321969696969697 5  0.213068181818182 4.9609375  0.127840909090909 4.8828125  C 0.0426136363636364 4.8046875  0 4.70486111111111  0 4.58333333333333  L 0 3.75  C 0 3.62847222222222  0.0426136363636364 3.52864583333333  0.127840909090909 3.45052083333333  C 0.213068181818182 3.37239583333333  0.321969696969697 3.33333333333333  0.454545454545455 3.33333333333333  L 4.84375 3.33333333333333  L 5.83806818181818 1.15885416666667  C 5.98011363636364 0.837673611111109  6.23579545454546 0.564236111111109  6.60511363636364 0.338541666666667  C 6.97443181818182 0.112847222222221  7.34848484848485 0  7.72727272727273 0  L 12.2727272727273 0  C 12.6515151515152 0  13.0255681818182 0.112847222222221  13.3948863636364 0.338541666666667  C 13.7642045454545 0.564236111111109  14.0198863636364 0.837673611111109  14.1619318181818 1.15885416666667  L 15.15625 3.33333333333333  L 19.5454545454545 3.33333333333333  C 19.6780303030303 3.33333333333333  19.7869318181818 3.37239583333333  19.8721590909091 3.45052083333333  Z " fill-rule="nonzero" fill="#000000" stroke="none" transform="matrix(1 0 0 1 1156 251 )" />
  </g>
</svg>