<?xml version="1.0" encoding="utf-8"?>
<svg version="1.1" xmlns:xlink="http://www.w3.org/1999/xlink" width="20px" height="20px" xmlns="http://www.w3.org/2000/svg">
  <g transform="matrix(1 0 0 1 -1093 -251 )">
    <path d="M 14.8493303571429 15.6684027777778  C 16.3411458333333 14.2621527777778  17.5818452380952 12.3726851851852  18.5714285714286 10  C 17.4404761904762 7.26851851851852  16.0230654761905 5.22569444444444  14.3191964285714 3.87152777777778  C 14.7730654761905 5.07523148148148  15 6.37731481481481  15 7.77777777777778  C 15 9.91898148148148  14.5107886904762 11.7505787037037  13.5323660714286 13.2725694444444  C 12.553943452381 14.7945601851852  11.3764880952381 15.5555555555556  10 15.5555555555556  C 8.62351190476191 15.5555555555556  7.44605654761905 14.7945601851852  6.46763392857143 13.2725694444444  C 5.48921130952381 11.7505787037037  5 9.91898148148148  5 7.77777777777778  C 5 6.37731481481481  5.22693452380952 5.07523148148148  5.68080357142857 3.87152777777778  C 3.97693452380952 5.22569444444444  2.55952380952381 7.26851851851852  1.42857142857143 10  C 2.41815476190476 12.3726851851852  3.65885416666667 14.2621527777778  5.15066964285714 15.6684027777778  C 6.64248511904762 17.0746527777778  8.25892857142857 17.7777777777778  10 17.7777777777778  C 11.7410714285714 17.7777777777778  13.3575148809524 17.0746527777778  14.8493303571429 15.6684027777778  Z M 10.3794642857143 3.92361111111111  C 10.483630952381 3.76157407407407  10.5357142857143 3.56481481481481  10.5357142857143 3.33333333333333  C 10.5357142857143 3.10185185185185  10.483630952381 2.90509259259259  10.3794642857143 2.74305555555556  C 10.2752976190476 2.58101851851852  10.1488095238095 2.5  10 2.5  C 9.06994047619048 2.5  8.27194940476191 3.01793981481481  7.60602678571429 4.05381944444444  C 6.94010416666667 5.08969907407407  6.60714285714286 6.33101851851852  6.60714285714286 7.77777777777778  C 6.60714285714286 8.00925925925926  6.65922619047619 8.20601851851852  6.76339285714286 8.36805555555556  C 6.86755952380952 8.53009259259259  6.99404761904762 8.61111111111111  7.14285714285714 8.61111111111111  C 7.29166666666667 8.61111111111111  7.41815476190476 8.53009259259259  7.52232142857143 8.36805555555556  C 7.62648809523809 8.20601851851852  7.67857142857143 8.00925925925926  7.67857142857143 7.77777777777778  C 7.67857142857143 6.78240740740741  7.90550595238095 5.93171296296296  8.359375 5.22569444444444  C 8.81324404761905 4.51967592592593  9.36011904761905 4.16666666666667  10 4.16666666666667  C 10.1488095238095 4.16666666666667  10.2752976190476 4.08564814814815  10.3794642857143 3.92361111111111  Z M 19.7767857142857 8.80208333333333  C 19.9255952380952 9.20717592592593  20 9.60648148148148  20 10  C 20 10.3935185185185  19.9255952380952 10.7928240740741  19.7767857142857 11.1979166666667  C 18.7351190476191 13.8599537037037  17.3344494047619 15.9924768518519  15.5747767857143 17.5954861111111  C 13.8151041666667 19.1984953703704  11.9568452380952 20  10 20  C 8.04315476190476 20  6.18489583333333 19.1956018518519  4.42522321428571 17.5868055555556  C 2.6655505952381 15.9780092592593  1.26488095238095 13.8483796296296  0.223214285714286 11.1979166666667  C 0.0744047619047619 10.7928240740741  0 10.3935185185185  0 10  C 0 9.60648148148148  0.0744047619047619 9.20717592592593  0.223214285714286 8.80208333333333  C 1.26488095238095 6.15162037037037  2.6655505952381 4.02199074074074  4.42522321428571 2.41319444444444  C 6.18489583333333 0.804398148148147  8.04315476190476 0  10 0  C 11.9568452380952 0  13.8151041666667 0.804398148148147  15.5747767857143 2.41319444444444  C 17.3344494047619 4.02199074074074  18.7351190476191 6.15162037037037  19.7767857142857 8.80208333333333  Z " fill-rule="nonzero" fill="#000000" stroke="none" transform="matrix(1 0 0 1 1093 251 )" />
  </g>
</svg>