<?xml version="1.0" encoding="utf-8"?>
<svg version="1.1" xmlns:xlink="http://www.w3.org/1999/xlink" width="20px" height="20px" xmlns="http://www.w3.org/2000/svg">
  <g transform="matrix(1 0 0 1 -1218 -251 )">
    <path d="M 16.6927239927841 10.9801136363636  C 16.8530767688916 11.0558712121212  16.9332531569453 11.1931818181818  16.9332531569453 11.3920454545455  L 16.9332531569453 15.9090909090909  C 16.9332531569453 17.0359848484848  16.5945079174183 17.9995265151515  15.9170174383644 18.7997159090909  C 15.2395269593105 19.5999053030303  14.4237322108639 20  13.4696331930247 20  L 3.46361996392063 20  C 2.50952094608138 20  1.6937261976348 19.5999053030303  1.01623571858088 18.7997159090909  C 0.338745239526959 17.9995265151515  0 17.0359848484848  0 15.9090909090909  L 0 4.09090909090909  C 0 2.96401515151515  0.338745239526959 2.00047348484848  1.01623571858088 1.20028409090909  C 1.6937261976348 0.400094696969695  2.50952094608138 0  3.46361996392063 0  L 13.4696331930247 0  C 13.9747444377631 0  14.4437763078773 0.118371212121211  14.8767288033674 0.355113636363635  C 14.996993385448 0.421401515151514  15.0691521346963 0.53030303030303  15.0932050511124 0.681818181818181  C 15.1172579675286 0.84280303030303  15.0811785929044 0.980113636363635  14.9849669272399 1.09375  L 14.3956704750451 1.78977272727273  C 14.3154940869914 1.8844696969697  14.2232912407296 1.93181818181818  14.1190619362598 1.93181818181818  C 14.0950090198437 1.93181818181818  14.0589296452195 1.92234848484848  14.0108238123873 1.90340909090909  C 13.8264181198637 1.84659090909091  13.6460212467428 1.81818181818182  13.4696331930247 2  L 3.46361996392063 2  C 2.93445580276609 1.81818181818182  2.48145921026258 2.0407196969697  2.1046301864101 2.48579545454545  C 1.72780116255763 2.93087121212121  1.53938665063139 3.46590909090909  1.53938665063139 4.09090909090909  L 1.53938665063139 15.9090909090909  C 1.53938665063139 16.5340909090909  1.72780116255763 17.0691287878788  2.1046301864101 17.5142045454545  C 2.48145921026258 17.9592803030303  2.93445580276609 18.1818181818182  3.46361996392063 18  L 13.4696331930247 18  C 13.9987973541792 18.1818181818182  14.4517939466827 17.9592803030303  14.8286229705352 17.5142045454545  C 15.2054519943877 17.0691287878788  15.3938665063139 16.5340909090909  15.3938665063139 15.9090909090909  L 15.3938665063139 12.3011363636364  C 15.3938665063139 12.1780303030303  15.4299458809381 12.0738636363636  15.5021046301864 11.9886363636364  L 16.2717979555021 11.0795454545455  C 16.3519743435558 10.9848484848485  16.4441771898176 10.9375  16.5484064942874 10.9375  C 16.5965123271197 10.9375  16.6446181599519 10.9517045454545  16.6927239927841 10.9801136363636  Z M 20 3.63636363636364  C 20 3.94886363636364  19.9037883343355 4.21875  19.7113650030066 4.44602272727273  L 9.92182802164763 16.0085227272727  C 9.7294046903187 16.2357954545455  9.50090198436561 16.3494318181818  9.23631990378833 16.3494318181818  C 8.97173782321106 16.3494318181818  8.74323511725797 16.2357954545455  8.55081178592904 16.0085227272727  L 3.37943475646422 9.90056818181818  C 3.1870114251353 9.67329545454545  3.09079975947084 9.40340909090909  3.09079975947084 9.09090909090909  C 3.09079975947084 8.77840909090909  3.1870114251353 8.50852272727272  3.37943475646422 8.28125  L 4.70234515935057 6.71875  C 4.89476849067949 6.49147727272727  5.12327119663259 6.37784090909091  5.38785327720986 6.37784090909091  C 5.65243535778713 6.37784090909091  5.88093806374023 6.49147727272727  6.07336139506915 6.71875  L 9.23631990378833 10.4545454545455  L 17.0174383644017 1.26420454545455  C 17.2098616957306 1.03693181818182  17.4383644016837 0.923295454545454  17.702946482261 0.923295454545454  C 17.9675285628382 0.923295454545454  18.1960312687913 1.03693181818182  18.3884546001203 1.26420454545455  L 19.7113650030066 2.82670454545455  C 19.9037883343355 3.05397727272727  20 3.32386363636364  20 3.63636363636364  Z " fill-rule="nonzero" fill="#000000" stroke="none" transform="matrix(1 0 0 1 1218 251 )" />
  </g>
</svg>